<?xml version="1.0" standalone="no"?>
<!DOCTYPE svg PUBLIC "-//W3C//DTD SVG 20010904//EN"
 "http://www.w3.org/TR/2001/REC-SVG-20010904/DTD/svg10.dtd">
<svg version="1.0" xmlns="http://www.w3.org/2000/svg"
 width="300.000000pt" height="100.000000pt" viewBox="0 0 300.000000 100.000000"
 preserveAspectRatio="xMidYMid meet">
<metadata>
Created by potrace 1.10, written by Peter Selinger 2001-2011
</metadata>
<g transform="translate(0.000000,100.000000) scale(0.100000,-0.100000)"
fill="#fd1600" stroke="none">
<path d="M2941 986 c-16 -19 -94 -52 -173 -71 l-66 -17 20 -35 c27 -44 20
-116 -21 -228 -16 -44 -54 -147 -83 -228 l-55 -148 -82 233 -82 233 27 23 c14
13 23 26 20 30 -4 3 -20 -7 -36 -24 l-29 -29 85 -239 c63 -177 83 -247 79
-268 -7 -29 -25 -39 -25 -14 0 8 -41 130 -91 272 l-91 257 43 43 43 44 -149 0
-149 0 51 -47 c50 -47 52 -52 124 -258 40 -116 87 -249 105 -298 l32 -87 -39
-28 c-21 -15 -39 -29 -39 -32 0 -3 61 -3 135 0 128 5 137 4 149 -15 13 -20 11
-20 -128 -17 -102 3 -138 0 -130 -8 7 -7 61 -10 158 -8 l148 3 -42 48 c-26 29
-40 54 -37 65 2 9 46 125 96 257 110 288 173 419 242 504 28 35 45 61 37 59
-28 -9 -111 -127 -157 -223 -27 -55 -93 -216 -146 -358 -95 -250 -97 -258 -80
-277 26 -29 3 -25 -24 4 l-23 25 102 268 c128 333 182 449 254 536 31 37 52
67 47 67 -5 0 -14 -6 -20 -14z m-95 -91 c-1 -9 -9 -24 -17 -34 -8 -9 -15 -23
-17 -29 -4 -20 -42 -87 -43 -77 -1 6 -3 24 -4 40 -2 17 -6 44 -10 61 -6 28 -4
31 32 41 55 15 62 15 59 -2z m-506 -118 c0 -7 -5 -18 -11 -24 -8 -8 -9 -25 -4
-50 5 -21 7 -44 6 -52 -1 -7 2 -10 8 -6 7 3 11 -2 11 -15 0 -11 4 -28 9 -38 4
-9 16 -39 26 -67 87 -246 113 -324 109 -327 -2 -3 7 -11 21 -18 19 -10 25 -21
23 -39 -2 -15 4 -31 12 -38 12 -10 2 -12 -53 -13 -64 0 -67 1 -55 19 14 22 1
88 -33 171 -10 25 -36 99 -59 165 -22 66 -45 128 -50 137 -6 10 -10 29 -10 43
0 14 -4 25 -10 25 -5 0 -10 8 -10 18 0 10 -11 41 -25 68 -14 27 -25 50 -25 52
0 1 27 2 60 2 43 0 60 -4 60 -13z"/>
<path d="M225 817 c-122 -47 -216 -184 -214 -310 l1 -52 10 40 c21 88 33 125
40 125 4 0 8 8 8 18 1 23 77 105 91 97 6 -4 9 0 7 10 -2 10 3 20 10 22 16 6 6
-20 -25 -66 -13 -19 -23 -45 -23 -58 0 -13 -4 -22 -8 -19 -5 3 -9 -57 -11
-132 -1 -103 2 -153 15 -202 9 -36 17 -71 17 -77 0 -7 4 -13 9 -13 4 0 8 -5 8
-11 0 -6 6 -16 13 -23 28 -29 67 -76 67 -81 0 -2 -10 0 -22 4 -13 5 -22 14
-21 20 2 6 -3 8 -10 5 -20 -7 -117 93 -117 121 0 8 -4 15 -9 15 -5 0 -15 26
-22 58 -23 110 -29 122 -25 47 4 -88 30 -149 91 -214 60 -64 127 -91 228 -91
85 0 162 30 195 77 48 67 67 194 31 201 -13 2 -18 -8 -23 -43 -19 -125 -80
-186 -187 -187 -126 -1 -200 105 -215 307 -7 92 8 209 35 270 70 159 260 142
317 -28 l19 -55 51 102 50 103 -45 -5 c-30 -2 -67 3 -108 17 -70 23 -178 27
-228 8z m291 -48 c40 -10 41 -11 30 -34 -6 -14 -14 -25 -18 -25 -5 0 -8 -7 -8
-15 0 -26 -21 -16 -31 15 -6 17 -15 30 -20 30 -5 0 -9 7 -9 15 0 7 -8 19 -17
25 -15 10 -14 10 7 5 14 -4 44 -11 66 -16z m-203 -696 c-7 -2 -21 -2 -30 0
-10 3 -4 5 12 5 17 0 24 -2 18 -5z"/>
<path d="M700 817 c0 -2 20 -18 45 -36 l45 -32 0 -130 c0 -71 -3 -128 -7 -127
-25 7 -74 -15 -93 -42 -12 -17 -20 -33 -18 -35 2 -3 22 4 43 15 45 23 75 26
75 7 0 -7 -23 -20 -50 -30 -28 -10 -48 -22 -45 -27 4 -6 18 -4 35 5 59 30 60
28 60 -114 l0 -130 -45 -32 c-25 -18 -45 -33 -45 -33 0 -1 148 -1 329 -1 l329
0 -35 39 c-38 41 -72 109 -73 141 0 13 -11 1 -33 -35 -43 -72 -77 -91 -177
-97 l-80 -6 0 142 0 141 61 0 c37 0 58 4 54 10 -3 6 -35 10 -71 10 l-64 0 0
-150 c0 -136 -2 -150 -17 -150 -17 0 -18 13 -15 165 l3 165 78 0 78 0 37 -52
36 -52 0 128 0 128 -33 -48 c-33 -48 -35 -49 -90 -52 l-57 -3 0 112 0 111 83
-3 c74 -4 88 -7 121 -33 28 -21 35 -23 25 -8 -26 41 -69 56 -159 57 l-85 0 -3
-117 c-1 -68 -7 -118 -12 -118 -6 0 -13 0 -16 0 -3 0 -5 60 -5 133 l0 132 106
-1 c123 -1 147 -12 180 -82 11 -23 22 -41 25 -42 3 0 14 21 24 46 10 26 34 66
52 90 l34 44 -315 0 c-173 0 -315 -1 -315 -3z m190 -46 c-16 -31 -13 -267 4
-283 11 -11 11 -16 -1 -34 -11 -17 -13 -58 -11 -188 l3 -167 -53 2 c-52 2 -52
3 -32 22 19 17 21 29 19 173 -1 130 -4 156 -18 163 -14 9 -14 11 2 28 14 16
17 40 17 138 0 108 -2 121 -22 142 l-21 23 62 0 c58 0 61 -1 51 -19z m250 9
c0 -5 -7 -7 -15 -4 -8 4 -15 8 -15 10 0 2 7 4 15 4 8 0 15 -4 15 -10z m114
-12 c-16 -54 -44 -62 -71 -20 -10 15 -22 30 -28 34 -5 4 16 8 48 8 56 0 58 -1
51 -22z m-146 -320 c-3 -21 -4 -20 -17 5 -12 23 -12 29 0 43 13 16 14 16 17
-4 2 -12 2 -32 0 -44z m151 -290 c7 -18 21 -39 30 -46 13 -11 4 -12 -59 -10
-41 2 -74 6 -72 11 1 4 3 6 5 5 2 -2 18 14 36 35 18 20 36 37 40 37 3 0 12
-15 20 -32z"/>
<path d="M1670 811 c-155 -48 -242 -203 -227 -409 14 -198 130 -329 303 -340
135 -9 226 45 286 166 33 66 33 69 33 207 0 130 -2 144 -26 196 -59 126 -152
189 -274 188 -38 0 -81 -4 -95 -8z m20 -25 c0 -2 -7 -7 -16 -10 -8 -3 -12 -2
-9 4 6 10 25 14 25 6z m-68 -46 c-9 -16 -20 -30 -24 -30 -4 0 -17 -33 -30 -72
-19 -63 -22 -95 -22 -226 0 -93 4 -156 11 -160 5 -4 12 -16 15 -27 3 -11 14
-38 23 -60 l17 -40 -23 20 c-41 34 -79 78 -79 90 0 7 -8 27 -17 46 -34 65 -26
354 8 333 5 -3 9 7 9 21 0 14 11 37 25 51 14 14 25 30 25 36 0 6 3 9 6 6 3 -3
16 5 29 18 33 33 47 30 27 -6z m228 8 c51 -35 78 -98 90 -209 12 -106 2 -228
-25 -310 -23 -68 -72 -111 -134 -117 -64 -6 -92 2 -131 35 -56 47 -73 100 -78
254 -8 257 50 368 194 369 37 0 60 -6 84 -22z m54 14 c3 -5 -1 -9 -9 -9 -8 0
-15 4 -15 9 0 4 4 8 9 8 6 0 12 -4 15 -8z m86 -92 c3 -3 11 -18 19 -35 69
-155 49 -380 -41 -463 -57 -53 -72 -63 -79 -51 -4 7 2 21 13 33 53 56 79 227
60 389 -16 135 -15 133 -36 156 -10 11 -16 27 -12 36 4 13 13 8 38 -22 18 -21
35 -40 38 -43z"/>
<path d="M1714 726 c-71 -31 -107 -134 -108 -306 0 -63 6 -135 13 -160 15 -55
53 -115 82 -131 17 -9 15 -3 -10 29 -40 49 -59 112 -67 216 -11 139 20 270 75
320 28 26 98 32 144 12 21 -8 35 -10 31 -5 -10 16 -70 39 -101 39 -15 -1 -42
-7 -59 -14z"/>
<path d="M1303 727 c-53 -80 -65 -105 -54 -111 5 -3 14 8 21 24 7 17 30 55 51
85 21 30 35 57 30 59 -4 3 -26 -23 -48 -57z"/>
<path d="M1989 754 c84 -73 126 -198 119 -360 -3 -85 -8 -108 -35 -166 -80
-170 -252 -241 -417 -173 -33 13 -61 23 -63 21 -2 -2 22 -16 54 -32 50 -25 69
-29 143 -28 72 0 93 4 135 26 28 14 67 43 88 65 125 124 155 370 67 549 -29
59 -97 134 -122 134 -6 0 7 -16 31 -36z"/>
<path d="M618 740 c-45 -80 -88 -163 -88 -172 0 -22 18 -2 40 45 13 28 37 74
53 101 15 26 26 53 24 59 -2 7 -15 -9 -29 -33z"/>
<path d="M256 729 c-130 -102 -108 -520 32 -602 17 -10 32 -14 32 -9 0 6 -9
14 -21 17 -33 11 -77 91 -95 173 -25 112 -16 273 20 346 41 83 99 104 179 66
l42 -21 -30 26 c-40 33 -119 35 -159 4z"/>
<path d="M1167 458 c1 -73 5 -134 10 -135 4 -2 7 58 5 132 -2 74 -6 135 -10
135 -4 0 -6 -60 -5 -132z"/>
<path d="M610 272 c0 -16 -7 -53 -16 -83 -21 -70 -89 -139 -157 -158 -67 -19
-185 -10 -231 17 -20 12 -36 17 -36 13 0 -5 21 -20 47 -32 39 -19 65 -23 133
-23 130 0 204 44 251 149 23 52 36 145 20 145 -6 0 -11 -13 -11 -28z"/>
<path d="M1290 235 c0 -16 37 -75 72 -118 66 -79 74 -77 -292 -77 -207 0 -320
-4 -320 -10 0 -6 114 -10 323 -10 l324 0 12 24 c12 22 9 28 -33 80 -25 31 -53
70 -61 86 -14 28 -25 38 -25 25z"/>
</g>
</svg>
